<svg width="25" height="24" viewBox="0 0 25 24" fill="none" xmlns="http://www.w3.org/2000/svg">
<path d="M20.0333 1.22667L14.8169 8.66669C14.4561 9.17333 15.1498 9.78667 15.6492 9.36L20.7824 5.06669C20.9212 4.95998 21.1154 5.04 21.1154 5.22667V18.64C21.1154 18.8267 20.8657 18.9067 20.7547 18.7733L5.2164 0.906667C4.71698 0.32 3.99556 0 3.1909 0H2.63596C1.19312 0 0 1.14667 0 2.56V21.44C0 22.8533 1.19312 24 2.6637 24C3.57936 24 4.43951 23.5467 4.93895 22.7733L10.1554 15.3333C10.5161 14.8267 9.82243 14.2133 9.32298 14.64L4.18979 18.9067C4.05105 19.0133 3.85682 18.9333 3.85682 18.7467V5.36002C3.85682 5.17334 4.10654 5.09333 4.21753 5.22667L19.7558 23.0933C20.2553 23.68 21.0044 24 21.7813 24H22.3363C23.8069 24 25 22.8533 25 21.44V2.56C24.9722 1.14667 23.7791 0 22.3085 0C21.3929 0 20.5327 0.453333 20.0333 1.22667Z" fill="#00B988"/>
</svg>
